<svg width="258" height="170" viewBox="0 0 258 170" fill="none" xmlns="http://www.w3.org/2000/svg">
<g filter="url(#filter0_d_2084_17)">
<path d="M35 21C35 16.5817 38.5817 13 43 13H235C239.418 13 243 16.5817 243 21V51H35V21Z" fill="#7551DC"/>
<path d="M47.416 37L51.544 25.8H53.4L57.496 37H55.704L54.744 34.264H50.168L49.208 37H47.416ZM50.648 32.92H54.264L52.456 27.816L50.648 32.92ZM60.79 37.192C59.83 37.192 59.0727 36.8933 58.518 36.296C57.974 35.6987 57.702 34.808 57.702 33.624V29.064H59.398V33.448C59.398 34.984 60.0273 35.752 61.286 35.752C61.9153 35.752 62.4327 35.528 62.838 35.08C63.2433 34.632 63.446 33.992 63.446 33.16V29.064H65.142V37H63.638L63.51 35.608C63.2647 36.0987 62.902 36.488 62.422 36.776C61.9527 37.0533 61.4087 37.192 60.79 37.192ZM69.5875 34.568C69.1715 34.568 68.7875 34.52 68.4355 34.424L67.7475 35.096C67.8648 35.1707 68.0088 35.2347 68.1795 35.288C68.3502 35.3413 68.5902 35.3893 68.8995 35.432C69.2088 35.4747 69.6302 35.5173 70.1635 35.56C71.2195 35.656 71.9822 35.912 72.4515 36.328C72.9208 36.7333 73.1555 37.2773 73.1555 37.96C73.1555 38.4293 73.0275 38.872 72.7715 39.288C72.5262 39.7147 72.1368 40.056 71.6035 40.312C71.0808 40.5787 70.4088 40.712 69.5875 40.712C68.4782 40.712 67.5768 40.4987 66.8835 40.072C66.2008 39.656 65.8595 39.0213 65.8595 38.168C65.8595 37.8373 65.9448 37.5067 66.1155 37.176C66.2968 36.856 66.5795 36.552 66.9635 36.264C66.7395 36.168 66.5422 36.0667 66.3715 35.96C66.2115 35.8427 66.0675 35.7253 65.9395 35.608V35.224L67.3155 33.816C66.6968 33.2827 66.3875 32.584 66.3875 31.72C66.3875 31.1973 66.5102 30.7227 66.7555 30.296C67.0115 29.8587 67.3795 29.512 67.8595 29.256C68.3395 29 68.9155 28.872 69.5875 28.872C70.0355 28.872 70.4515 28.936 70.8355 29.064H73.7955V30.184L72.3875 30.264C72.6435 30.7013 72.7715 31.1867 72.7715 31.72C72.7715 32.2533 72.6435 32.7333 72.3875 33.16C72.1422 33.5867 71.7795 33.928 71.2995 34.184C70.8302 34.44 70.2595 34.568 69.5875 34.568ZM69.5875 33.24C70.0782 33.24 70.4728 33.112 70.7715 32.856C71.0808 32.5893 71.2355 32.216 71.2355 31.736C71.2355 31.2453 71.0808 30.872 70.7715 30.616C70.4728 30.36 70.0782 30.232 69.5875 30.232C69.0862 30.232 68.6808 30.36 68.3715 30.616C68.0728 30.872 67.9235 31.2453 67.9235 31.736C67.9235 32.216 68.0728 32.5893 68.3715 32.856C68.6808 33.112 69.0862 33.24 69.5875 33.24ZM67.4595 38.008C67.4595 38.4667 67.6622 38.808 68.0675 39.032C68.4728 39.2667 68.9795 39.384 69.5875 39.384C70.1742 39.384 70.6488 39.256 71.0115 39C71.3742 38.7547 71.5555 38.424 71.5555 38.008C71.5555 37.6987 71.4328 37.432 71.1875 37.208C70.9422 36.9947 70.4782 36.8613 69.7955 36.808C69.2835 36.776 68.8302 36.728 68.4355 36.664C68.0622 36.8667 67.8062 37.0853 67.6675 37.32C67.5288 37.5547 67.4595 37.784 67.4595 38.008ZM77.2763 37.192C76.3163 37.192 75.5589 36.8933 75.0043 36.296C74.4603 35.6987 74.1883 34.808 74.1883 33.624V29.064H75.8843V33.448C75.8843 34.984 76.5136 35.752 77.7723 35.752C78.4016 35.752 78.9189 35.528 79.3243 35.08C79.7296 34.632 79.9323 33.992 79.9323 33.16V29.064H81.6283V37H80.1243L79.9963 35.608C79.7509 36.0987 79.3883 36.488 78.9083 36.776C78.4389 37.0533 77.8949 37.192 77.2763 37.192ZM85.9938 37.192C84.9911 37.192 84.1644 36.9467 83.5137 36.456C82.8631 35.9653 82.4897 35.3147 82.3937 34.504H84.1057C84.1911 34.8667 84.3937 35.1813 84.7137 35.448C85.0337 35.704 85.4551 35.832 85.9777 35.832C86.4897 35.832 86.8631 35.7253 87.0978 35.512C87.3324 35.2987 87.4497 35.0533 87.4497 34.776C87.4497 34.3707 87.2844 34.0987 86.9538 33.96C86.6338 33.8107 86.1858 33.6773 85.6098 33.56C85.1618 33.464 84.7138 33.336 84.2657 33.176C83.8284 33.016 83.4604 32.792 83.1617 32.504C82.8737 32.2053 82.7297 31.8053 82.7297 31.304C82.7297 30.6107 82.9964 30.0347 83.5297 29.576C84.0631 29.1067 84.8098 28.872 85.7698 28.872C86.6551 28.872 87.3698 29.0853 87.9138 29.512C88.4684 29.9387 88.7937 30.5413 88.8898 31.32H87.2578C87.2044 30.9787 87.0444 30.712 86.7778 30.52C86.5218 30.328 86.1751 30.232 85.7378 30.232C85.3111 30.232 84.9804 30.3227 84.7457 30.504C84.5111 30.6747 84.3937 30.8987 84.3937 31.176C84.3937 31.4533 84.5537 31.672 84.8737 31.832C85.2044 31.992 85.6364 32.136 86.1698 32.264C86.7031 32.3813 87.1938 32.52 87.6418 32.68C88.1004 32.8293 88.4684 33.0533 88.7457 33.352C89.0231 33.6507 89.1618 34.088 89.1618 34.664C89.1724 35.3893 88.8898 35.992 88.3138 36.472C87.7484 36.952 86.9751 37.192 85.9938 37.192ZM93.0844 37C92.3057 37 91.687 36.8133 91.2284 36.44C90.7697 36.056 90.5404 35.3787 90.5404 34.408V30.488H89.1804V29.064H90.5404L90.7484 27.048H92.2364V29.064H94.4764V30.488H92.2364V34.408C92.2364 34.8453 92.327 35.1493 92.5084 35.32C92.7004 35.48 93.0257 35.56 93.4844 35.56H94.3964V37H93.0844ZM98.1764 37V35.784C98.9017 35.208 99.595 34.6267 100.256 34.04C100.918 33.4533 101.504 32.8773 102.016 32.312C102.539 31.736 102.95 31.176 103.248 30.632C103.547 30.0773 103.696 29.544 103.696 29.032C103.696 28.6907 103.638 28.3707 103.52 28.072C103.403 27.7627 103.211 27.5173 102.944 27.336C102.678 27.144 102.32 27.048 101.872 27.048C101.2 27.048 100.694 27.2613 100.352 27.688C100.022 28.1147 99.8617 28.6267 99.8724 29.224H98.2244C98.235 28.4347 98.4004 27.7733 98.7204 27.24C99.051 26.7067 99.4884 26.3013 100.032 26.024C100.587 25.7467 101.211 25.608 101.904 25.608C102.96 25.608 103.803 25.9067 104.432 26.504C105.072 27.0907 105.392 27.912 105.392 28.968C105.392 29.5973 105.238 30.2213 104.928 30.84C104.63 31.4587 104.235 32.056 103.744 32.632C103.264 33.1973 102.747 33.7307 102.192 34.232C101.638 34.7333 101.11 35.1867 100.608 35.592H105.728V37H98.1764ZM110.952 37.192C109.938 37.192 109.064 36.952 108.328 36.472C107.602 35.9813 107.042 35.304 106.648 34.44C106.264 33.5653 106.072 32.552 106.072 31.4C106.072 30.248 106.264 29.24 106.648 28.376C107.042 27.5013 107.602 26.824 108.328 26.344C109.064 25.8533 109.938 25.608 110.952 25.608C111.965 25.608 112.834 25.8533 113.56 26.344C114.285 26.824 114.84 27.5013 115.224 28.376C115.618 29.24 115.816 30.248 115.816 31.4C115.816 32.552 115.618 33.5653 115.224 34.44C114.84 35.304 114.285 35.9813 113.56 36.472C112.834 36.952 111.965 37.192 110.952 37.192ZM110.952 35.672C111.56 35.672 112.098 35.5013 112.568 35.16C113.048 34.8187 113.421 34.328 113.688 33.688C113.954 33.048 114.088 32.2853 114.088 31.4C114.088 30.5147 113.954 29.752 113.688 29.112C113.421 28.472 113.048 27.9813 112.568 27.64C112.098 27.2987 111.56 27.128 110.952 27.128C110.333 27.128 109.789 27.2987 109.32 27.64C108.85 27.9813 108.482 28.472 108.216 29.112C107.949 29.752 107.816 30.5147 107.816 31.4C107.816 32.2853 107.949 33.048 108.216 33.688C108.482 34.328 108.85 34.8187 109.32 35.16C109.789 35.5013 110.333 35.672 110.952 35.672ZM116.397 37V35.784C117.122 35.208 117.816 34.6267 118.477 34.04C119.138 33.4533 119.725 32.8773 120.237 32.312C120.76 31.736 121.17 31.176 121.469 30.632C121.768 30.0773 121.917 29.544 121.917 29.032C121.917 28.6907 121.858 28.3707 121.741 28.072C121.624 27.7627 121.432 27.5173 121.165 27.336C120.898 27.144 120.541 27.048 120.093 27.048C119.421 27.048 118.914 27.2613 118.573 27.688C118.242 28.1147 118.082 28.6267 118.093 29.224H116.445C116.456 28.4347 116.621 27.7733 116.941 27.24C117.272 26.7067 117.709 26.3013 118.253 26.024C118.808 25.7467 119.432 25.608 120.125 25.608C121.181 25.608 122.024 25.9067 122.653 26.504C123.293 27.0907 123.613 27.912 123.613 28.968C123.613 29.5973 123.458 30.2213 123.149 30.84C122.85 31.4587 122.456 32.056 121.965 32.632C121.485 33.1973 120.968 33.7307 120.413 34.232C119.858 34.7333 119.33 35.1867 118.829 35.592H123.949V37H116.397ZM129.718 37V34.76H124.102V33.416L129.446 25.8H131.398V33.288H132.966V34.76H131.398V37H129.718ZM125.942 33.288H129.814V27.672L125.942 33.288Z" fill="white"/>
<path d="M182.996 36.514L180.35 26.7H181.946L183.892 34.82L186.132 26.7H187.77L189.94 34.82L191.886 26.7H193.482L190.794 36.5H189.058L186.916 28.814L184.704 36.5L182.996 36.514ZM196.471 36.668C195.79 36.668 195.183 36.5187 194.651 36.22C194.128 35.912 193.718 35.4873 193.419 34.946C193.12 34.4047 192.971 33.7747 192.971 33.056C192.971 32.328 193.116 31.6887 193.405 31.138C193.704 30.5873 194.114 30.158 194.637 29.85C195.169 29.542 195.785 29.388 196.485 29.388C197.166 29.388 197.759 29.542 198.263 29.85C198.767 30.1487 199.159 30.55 199.439 31.054C199.719 31.558 199.859 32.1133 199.859 32.72C199.859 32.8133 199.854 32.916 199.845 33.028C199.845 33.1307 199.84 33.2473 199.831 33.378H194.427C194.474 34.05 194.693 34.5633 195.085 34.918C195.486 35.2633 195.948 35.436 196.471 35.436C196.891 35.436 197.241 35.3427 197.521 35.156C197.81 34.96 198.025 34.6987 198.165 34.372H199.649C199.462 35.0253 199.089 35.5713 198.529 36.01C197.978 36.4487 197.292 36.668 196.471 36.668ZM196.471 30.606C195.976 30.606 195.538 30.7553 195.155 31.054C194.772 31.3433 194.539 31.782 194.455 32.37H198.375C198.347 31.8287 198.156 31.3993 197.801 31.082C197.446 30.7647 197.003 30.606 196.471 30.606ZM203.807 36.668C203.125 36.668 202.519 36.5187 201.987 36.22C201.464 35.912 201.053 35.4873 200.755 34.946C200.456 34.4047 200.307 33.7747 200.307 33.056C200.307 32.328 200.451 31.6887 200.741 31.138C201.039 30.5873 201.45 30.158 201.973 29.85C202.505 29.542 203.121 29.388 203.821 29.388C204.502 29.388 205.095 29.542 205.599 29.85C206.103 30.1487 206.495 30.55 206.775 31.054C207.055 31.558 207.195 32.1133 207.195 32.72C207.195 32.8133 207.19 32.916 207.181 33.028C207.181 33.1307 207.176 33.2473 207.167 33.378H201.763C201.809 34.05 202.029 34.5633 202.421 34.918C202.822 35.2633 203.284 35.436 203.807 35.436C204.227 35.436 204.577 35.3427 204.857 35.156C205.146 34.96 205.361 34.6987 205.501 34.372H206.985C206.798 35.0253 206.425 35.5713 205.865 36.01C205.314 36.4487 204.628 36.668 203.807 36.668ZM203.807 30.606C203.312 30.606 202.873 30.7553 202.491 31.054C202.108 31.3433 201.875 31.782 201.791 32.37H205.711C205.683 31.8287 205.491 31.3993 205.137 31.082C204.782 30.7647 204.339 30.606 203.807 30.606ZM207.895 36.5V26.42H209.379V32.426L212.039 29.556H213.817L210.863 32.706L214.251 36.5H212.375L209.379 32.944V36.5H207.895ZM215.624 36.5V28.38L214.042 28.744V27.652L216.212 26.7H217.164V36.5H215.624Z" fill="white"/>
</g>
<path d="M243 51H35V170H243V51Z" fill="white"/>
<path d="M63 69.25C61.0716 69.25 59.1866 69.8218 57.5832 70.8932C55.9798 71.9645 54.7301 73.4873 53.9922 75.2688C53.2542 77.0504 53.0611 79.0108 53.4373 80.9021C53.8136 82.7934 54.7422 84.5307 56.1057 85.8943C57.4693 87.2579 59.2066 88.1865 61.0979 88.5627C62.9892 88.9389 64.9496 88.7458 66.7312 88.0078C68.5127 87.2699 70.0355 86.0202 71.1068 84.4168C72.1782 82.8134 72.75 80.9284 72.75 79C72.7473 76.415 71.7192 73.9366 69.8913 72.1087C68.0634 70.2808 65.585 69.2527 63 69.25ZM67.2806 77.2806L62.0306 82.5306C61.961 82.6004 61.8783 82.6557 61.7872 82.6934C61.6962 82.7312 61.5986 82.7506 61.5 82.7506C61.4014 82.7506 61.3038 82.7312 61.2128 82.6934C61.1218 82.6557 61.039 82.6004 60.9694 82.5306L58.7194 80.2806C58.5786 80.1399 58.4996 79.949 58.4996 79.75C58.4996 79.551 58.5786 79.3601 58.7194 79.2194C58.8601 79.0786 59.051 78.9996 59.25 78.9996C59.449 78.9996 59.6399 79.0786 59.7806 79.2194L61.5 80.9397L66.2194 76.2194C66.2891 76.1497 66.3718 76.0944 66.4628 76.0567C66.5539 76.019 66.6515 75.9996 66.75 75.9996C66.8486 75.9996 66.9461 76.019 67.0372 76.0567C67.1282 76.0944 67.2109 76.1497 67.2806 76.2194C67.3503 76.2891 67.4056 76.3718 67.4433 76.4628C67.481 76.5539 67.5004 76.6515 67.5004 76.75C67.5004 76.8485 67.481 76.9461 67.4433 77.0372C67.4056 77.1282 67.3503 77.2109 67.2806 77.2806Z" fill="#7551DC"/>
<path d="M113.667 69.25C111.739 69.25 109.854 69.8218 108.25 70.8932C106.647 71.9645 105.397 73.4873 104.659 75.2688C103.921 77.0504 103.728 79.0108 104.104 80.9021C104.481 82.7934 105.409 84.5307 106.773 85.8943C108.136 87.2579 109.874 88.1865 111.765 88.5627C113.656 88.9389 115.617 88.7458 117.398 88.0078C119.18 87.2699 120.702 86.0202 121.774 84.4168C122.845 82.8134 123.417 80.9284 123.417 79C123.414 76.415 122.386 73.9366 120.558 72.1087C118.73 70.2808 116.252 69.2527 113.667 69.25ZM117.948 77.2806L112.698 82.5306C112.628 82.6004 112.545 82.6557 112.454 82.6934C112.363 82.7312 112.266 82.7506 112.167 82.7506C112.068 82.7506 111.971 82.7312 111.88 82.6934C111.789 82.6557 111.706 82.6004 111.636 82.5306L109.386 80.2806C109.246 80.1399 109.167 79.949 109.167 79.75C109.167 79.551 109.246 79.3601 109.386 79.2194C109.527 79.0786 109.718 78.9996 109.917 78.9996C110.116 78.9996 110.307 79.0786 110.448 79.2194L112.167 80.9397L116.886 76.2194C116.956 76.1497 117.039 76.0944 117.13 76.0567C117.221 76.019 117.318 75.9996 117.417 75.9996C117.516 75.9996 117.613 76.019 117.704 76.0567C117.795 76.0944 117.878 76.1497 117.948 76.2194C118.017 76.2891 118.073 76.3718 118.11 76.4628C118.148 76.5539 118.167 76.6515 118.167 76.75C118.167 76.8485 118.148 76.9461 118.11 77.0372C118.073 77.1282 118.017 77.2109 117.948 77.2806Z" fill="#7551DC"/>
<path d="M164.333 69.25C162.405 69.25 160.52 69.8218 158.916 70.8932C157.313 71.9645 156.063 73.4873 155.325 75.2688C154.587 77.0504 154.394 79.0108 154.77 80.9021C155.147 82.7934 156.075 84.5307 157.439 85.8943C158.802 87.2579 160.54 88.1865 162.431 88.5627C164.322 88.9389 166.283 88.7458 168.064 88.0078C169.846 87.2699 171.368 86.0202 172.44 84.4168C173.511 82.8134 174.083 80.9284 174.083 79C174.08 76.415 173.052 73.9366 171.224 72.1087C169.396 70.2808 166.918 69.2527 164.333 69.25ZM168.614 77.2806L163.364 82.5306C163.294 82.6004 163.211 82.6557 163.12 82.6934C163.029 82.7312 162.932 82.7506 162.833 82.7506C162.734 82.7506 162.637 82.7312 162.546 82.6934C162.455 82.6557 162.372 82.6004 162.302 82.5306L160.052 80.2806C159.912 80.1399 159.833 79.949 159.833 79.75C159.833 79.551 159.912 79.3601 160.052 79.2194C160.193 79.0786 160.384 78.9996 160.583 78.9996C160.782 78.9996 160.973 79.0786 161.114 79.2194L162.833 80.9397L167.552 76.2194C167.622 76.1497 167.705 76.0944 167.796 76.0567C167.887 76.019 167.984 75.9996 168.083 75.9996C168.182 75.9996 168.279 76.019 168.37 76.0567C168.461 76.0944 168.544 76.1497 168.614 76.2194C168.683 76.2891 168.739 76.3718 168.776 76.4628C168.814 76.5539 168.833 76.6515 168.833 76.75C168.833 76.8485 168.814 76.9461 168.776 77.0372C168.739 77.1282 168.683 77.2109 168.614 77.2806Z" fill="#7551DC"/>
<path d="M215 69.25C213.072 69.25 211.187 69.8218 209.583 70.8932C207.98 71.9645 206.73 73.4873 205.992 75.2688C205.254 77.0504 205.061 79.0108 205.437 80.9021C205.814 82.7934 206.742 84.5307 208.106 85.8943C209.469 87.2579 211.207 88.1865 213.098 88.5627C214.989 88.9389 216.95 88.7458 218.731 88.0078C220.513 87.2699 222.035 86.0202 223.107 84.4168C224.178 82.8134 224.75 80.9284 224.75 79C224.747 76.415 223.719 73.9366 221.891 72.1087C220.063 70.2808 217.585 69.2527 215 69.25ZM219.281 77.2806L214.031 82.5306C213.961 82.6004 213.878 82.6557 213.787 82.6934C213.696 82.7312 213.599 82.7506 213.5 82.7506C213.401 82.7506 213.304 82.7312 213.213 82.6934C213.122 82.6557 213.039 82.6004 212.969 82.5306L210.719 80.2806C210.579 80.1399 210.5 79.949 210.5 79.75C210.5 79.551 210.579 79.3601 210.719 79.2194C210.86 79.0786 211.051 78.9996 211.25 78.9996C211.449 78.9996 211.64 79.0786 211.781 79.2194L213.5 80.9397L218.219 76.2194C218.289 76.1497 218.372 76.0944 218.463 76.0567C218.554 76.019 218.651 75.9996 218.75 75.9996C218.849 75.9996 218.946 76.019 219.037 76.0567C219.128 76.0944 219.211 76.1497 219.281 76.2194C219.35 76.2891 219.406 76.3718 219.443 76.4628C219.481 76.5539 219.5 76.6515 219.5 76.75C219.5 76.8485 219.481 76.9461 219.443 77.0372C219.406 77.1282 219.35 77.2109 219.281 77.2806Z" fill="#7551DC"/>
<path d="M70 107H55C52.7909 107 51 108.791 51 111V126C51 128.209 52.7909 130 55 130H70C72.2091 130 74 128.209 74 126V111C74 108.791 72.2091 107 70 107Z" fill="#FCEBD1"/>
<path d="M121 107H106C103.791 107 102 108.791 102 111V126C102 128.209 103.791 130 106 130H121C123.209 130 125 128.209 125 126V111C125 108.791 123.209 107 121 107Z" fill="#FCEBD1"/>
<path d="M172 107H157C154.791 107 153 108.791 153 111V126C153 128.209 154.791 130 157 130H172C174.209 130 176 128.209 176 126V111C176 108.791 174.209 107 172 107Z" fill="#FCEBD1"/>
<path d="M223 107H208C205.791 107 204 108.791 204 111V126C204 128.209 205.791 130 208 130H223C225.209 130 227 128.209 227 126V111C227 108.791 225.209 107 223 107Z" fill="#FCEBD1"/>
<path d="M70 146H55C52.7909 146 51 147.791 51 150V165C51 167.209 52.7909 169 55 169H70C72.2091 169 74 167.209 74 165V150C74 147.791 72.2091 146 70 146Z" fill="#FCEBD1"/>
<path d="M121 146H106C103.791 146 102 147.791 102 150V165C102 167.209 103.791 169 106 169H121C123.209 169 125 167.209 125 165V150C125 147.791 123.209 146 121 146Z" fill="#FCEBD1"/>
<path d="M172 146H157C154.791 146 153 147.791 153 150V165C153 167.209 154.791 169 157 169H172C174.209 169 176 167.209 176 165V150C176 147.791 174.209 146 172 146Z" fill="#FCEBD1"/>
<path d="M223 146H208C205.791 146 204 147.791 204 150V165C204 167.209 205.791 169 208 169H223C225.209 169 227 167.209 227 165V150C227 147.791 225.209 146 223 146Z" fill="#FCEBD1"/>
<defs>
<filter id="filter0_d_2084_17" x="0.76495" y="0.284101" width="256.907" height="86.9072" filterUnits="userSpaceOnUse" color-interpolation-filters="sRGB">
<feFlood flood-opacity="0" result="BackgroundImageFix"/>
<feColorMatrix in="SourceAlpha" type="matrix" values="0 0 0 0 0 0 0 0 0 0 0 0 0 0 0 0 0 0 127 0" result="hardAlpha"/>
<feOffset dx="-9.78145" dy="11.7377"/>
<feGaussianBlur stdDeviation="12.2268"/>
<feComposite in2="hardAlpha" operator="out"/>
<feColorMatrix type="matrix" values="0 0 0 0 0.384371 0 0 0 0 0.102708 0 0 0 0 0.483333 0 0 0 0.05 0"/>
<feBlend mode="normal" in2="BackgroundImageFix" result="effect1_dropShadow_2084_17"/>
<feBlend mode="normal" in="SourceGraphic" in2="effect1_dropShadow_2084_17" result="shape"/>
</filter>
</defs>
</svg>
