<svg width="366" height="116" viewBox="0 0 366 116" fill="none" xmlns="http://www.w3.org/2000/svg">
<g filter="url(#filter0_d_2107_24)">
<rect x="35" y="13" width="154.541" height="66.5408" rx="33.2704" fill="white" shape-rendering="crispEdges"/>
<circle cx="68.2704" cy="46.2704" r="21.2704" fill="#FFCC6A"/>
<path d="M68.3955 41.5203C67.4313 41.5203 66.4888 41.8062 65.6871 42.3419C64.8854 42.8776 64.2606 43.639 63.8916 44.5297C63.5226 45.4205 63.4261 46.4007 63.6142 47.3464C63.8023 48.292 64.2666 49.1607 64.9484 49.8425C65.6301 50.5243 66.4988 50.9886 67.4444 51.1767C68.3901 51.3648 69.3703 51.2682 70.2611 50.8992C71.1519 50.5303 71.9132 49.9054 72.4489 49.1037C72.9846 48.302 73.2705 47.3595 73.2705 46.3953C73.2692 45.1028 72.7551 43.8636 71.8412 42.9497C70.9272 42.0357 69.688 41.5217 68.3955 41.5203ZM68.3955 48.8328C67.9134 48.8328 67.4422 48.6899 67.0413 48.422C66.6405 48.1542 66.328 47.7735 66.1436 47.3281C65.9591 46.8827 65.9108 46.3926 66.0048 45.9198C66.0989 45.447 66.331 45.0126 66.6719 44.6718C67.0128 44.3309 67.4471 44.0987 67.92 44.0047C68.3928 43.9106 68.8829 43.9589 69.3283 44.1434C69.7737 44.3279 70.1544 44.6403 70.4222 45.0411C70.6901 45.442 70.833 45.9132 70.833 46.3953C70.833 47.0418 70.5762 47.6618 70.1191 48.1189C69.662 48.576 69.042 48.8328 68.3955 48.8328ZM73.2705 35.4266H63.5205C61.9049 35.4285 60.356 36.0711 59.2137 37.2135C58.0713 38.3559 57.4286 39.9047 57.4268 41.5203V51.2703C57.4286 52.8859 58.0713 54.4348 59.2137 55.5772C60.356 56.7196 61.9049 57.3622 63.5205 57.3641H73.2705C74.8861 57.3622 76.435 56.7196 77.5774 55.5772C78.7198 54.4348 79.3624 52.8859 79.3643 51.2703V41.5203C79.3624 39.9047 78.7198 38.3559 77.5774 37.2135C76.435 36.0711 74.8861 35.4285 73.2705 35.4266ZM76.9268 51.2703C76.9268 52.24 76.5415 53.17 75.8559 53.8557C75.1702 54.5414 74.2402 54.9266 73.2705 54.9266H63.5205C62.5508 54.9266 61.6208 54.5414 60.9351 53.8557C60.2495 53.17 59.8643 52.24 59.8643 51.2703V41.5203C59.8643 40.5506 60.2495 39.6206 60.9351 38.935C61.6208 38.2493 62.5508 37.8641 63.5205 37.8641H73.2705C74.2402 37.8641 75.1702 38.2493 75.8559 38.935C76.5415 39.6206 76.9268 40.5506 76.9268 41.5203V51.2703ZM75.3018 41.1141C75.3018 41.4355 75.2065 41.7496 75.0279 42.0169C74.8493 42.2841 74.5955 42.4924 74.2986 42.6154C74.0017 42.7384 73.675 42.7706 73.3597 42.7079C73.0445 42.6451 72.755 42.4904 72.5277 42.2631C72.3004 42.0359 72.1457 41.7463 72.083 41.4311C72.0203 41.1159 72.0525 40.7891 72.1755 40.4922C72.2984 40.1953 72.5067 39.9415 72.774 39.7629C73.0412 39.5844 73.3554 39.4891 73.6768 39.4891C74.1077 39.4891 74.5211 39.6603 74.8258 39.965C75.1306 40.2698 75.3018 40.6831 75.3018 41.1141Z" fill="#7551DC"/>
<path d="M104.501 44.5344C103.36 44.5344 102.357 44.3104 101.493 43.8624C100.629 43.4144 99.957 42.7744 99.477 41.9424C98.997 41.1211 98.757 40.1504 98.757 39.0304C98.757 37.8891 98.949 36.8277 99.333 35.8464C99.7277 34.8651 100.277 34.0117 100.981 33.2864C101.696 32.5504 102.538 31.9797 103.509 31.5744C104.49 31.1584 105.573 30.9504 106.757 30.9504C107.952 30.9504 108.986 31.1797 109.861 31.6384C110.746 32.0971 111.429 32.7371 111.909 33.5584C112.4 34.3691 112.645 35.3131 112.645 36.3904C112.645 37.0197 112.57 37.6277 112.421 38.2144C112.272 38.8011 112.042 39.3344 111.733 39.8144C111.434 40.2837 111.072 40.6624 110.645 40.9504C110.218 41.2277 109.722 41.3664 109.157 41.3664C108.485 41.3664 107.994 41.1637 107.685 40.7584C107.386 40.3531 107.28 39.8251 107.365 39.1744L107.413 38.6464L107.701 39.2384C107.434 39.8997 107.013 40.4224 106.437 40.8064C105.872 41.1797 105.248 41.3664 104.565 41.3664C103.776 41.3664 103.152 41.1264 102.693 40.6464C102.245 40.1557 102.021 39.4891 102.021 38.6464C102.021 38.0597 102.112 37.4997 102.293 36.9664C102.485 36.4331 102.746 35.9584 103.077 35.5424C103.408 35.1157 103.802 34.7797 104.261 34.5344C104.73 34.2891 105.248 34.1664 105.813 34.1664C106.453 34.1664 106.96 34.3371 107.333 34.6784C107.706 35.0091 107.93 35.4944 108.005 36.1344L107.669 36.3424L108.037 34.3264H109.365L108.581 38.8064C108.506 39.2437 108.528 39.6011 108.645 39.8784C108.762 40.1451 109.008 40.2784 109.381 40.2784C109.712 40.2784 110 40.1611 110.245 39.9264C110.49 39.6917 110.698 39.3877 110.869 39.0144C111.04 38.6304 111.168 38.2144 111.253 37.7664C111.338 37.3184 111.381 36.8811 111.381 36.4544C111.381 35.5371 111.184 34.7531 110.789 34.1024C110.405 33.4517 109.856 32.9504 109.141 32.5984C108.426 32.2357 107.573 32.0544 106.581 32.0544C105.621 32.0544 104.741 32.2304 103.941 32.5824C103.141 32.9344 102.448 33.4251 101.861 34.0544C101.274 34.6731 100.821 35.3984 100.501 36.2304C100.181 37.0624 100.021 37.9531 100.021 38.9024C100.021 39.8624 100.208 40.6784 100.581 41.3504C100.965 42.0224 101.509 42.5291 102.213 42.8704C102.928 43.2224 103.77 43.3984 104.741 43.3984C105.21 43.3984 105.674 43.3504 106.133 43.2544C106.602 43.1691 107.034 43.0357 107.429 42.8544L107.701 43.9264C107.21 44.1291 106.693 44.2784 106.149 44.3744C105.616 44.4811 105.066 44.5344 104.501 44.5344ZM105.061 40.1664C105.477 40.1664 105.861 40.0544 106.213 39.8304C106.565 39.5957 106.858 39.2757 107.093 38.8704C107.328 38.4544 107.466 37.9797 107.509 37.4464C107.552 37.0624 107.514 36.7157 107.397 36.4064C107.29 36.0864 107.109 35.8357 106.853 35.6544C106.608 35.4624 106.288 35.3664 105.893 35.3664C105.52 35.3664 105.178 35.4517 104.869 35.6224C104.57 35.7931 104.314 36.0224 104.101 36.3104C103.898 36.5984 103.738 36.9237 103.621 37.2864C103.514 37.6491 103.461 38.0171 103.461 38.3904C103.461 38.9237 103.594 39.3557 103.861 39.6864C104.128 40.0064 104.528 40.1664 105.061 40.1664ZM115.487 41.2704V37.1104L111.791 30.0704H113.599L116.511 35.9904H116.079L118.959 30.0704H120.751L117.087 37.1104V41.2704H115.487ZM123.452 41.4624C122.694 41.4624 122.012 41.2917 121.404 40.9504C120.806 40.5984 120.332 40.1077 119.98 39.4784C119.638 38.8384 119.468 38.0971 119.468 37.2544C119.468 36.4117 119.644 35.6757 119.996 35.0464C120.348 34.4064 120.828 33.9157 121.436 33.5744C122.044 33.2224 122.721 33.0464 123.468 33.0464C124.236 33.0464 124.918 33.2224 125.516 33.5744C126.124 33.9157 126.598 34.4011 126.94 35.0304C127.292 35.6597 127.468 36.4011 127.468 37.2544C127.468 38.0971 127.292 38.8384 126.94 39.4784C126.588 40.1077 126.108 40.5984 125.5 40.9504C124.902 41.2917 124.22 41.4624 123.452 41.4624ZM123.452 40.0864C123.889 40.0864 124.284 39.9851 124.636 39.7824C124.998 39.5691 125.286 39.2491 125.5 38.8224C125.724 38.3957 125.836 37.8731 125.836 37.2544C125.836 36.6251 125.729 36.1024 125.516 35.6864C125.302 35.2597 125.014 34.9451 124.652 34.7424C124.3 34.5291 123.91 34.4224 123.484 34.4224C123.068 34.4224 122.673 34.5291 122.3 34.7424C121.937 34.9451 121.644 35.2597 121.42 35.6864C121.206 36.1024 121.1 36.6251 121.1 37.2544C121.1 37.8731 121.206 38.3957 121.42 38.8224C121.644 39.2491 121.932 39.5691 122.284 39.7824C122.646 39.9851 123.036 40.0864 123.452 40.0864ZM131.318 41.4624C130.689 41.4624 130.145 41.3344 129.686 41.0784C129.227 40.8224 128.87 40.4384 128.614 39.9264C128.369 39.4037 128.246 38.7531 128.246 37.9744V33.2384H129.846V37.8144C129.846 38.5717 130.006 39.1424 130.326 39.5264C130.657 39.9104 131.131 40.1024 131.75 40.1024C132.177 40.1024 132.555 40.0011 132.886 39.7984C133.227 39.5957 133.494 39.3024 133.686 38.9184C133.878 38.5344 133.974 38.0651 133.974 37.5104V33.2384H135.574V41.2704H134.15L134.038 39.8944C133.793 40.3744 133.43 40.7584 132.95 41.0464C132.481 41.3237 131.937 41.4624 131.318 41.4624ZM136.789 41.2704V33.2384H138.229L138.373 34.7584C138.554 34.3957 138.784 34.0917 139.061 33.8464C139.349 33.5904 139.685 33.3931 140.069 33.2544C140.464 33.1157 140.906 33.0464 141.397 33.0464V34.7264H140.869C140.528 34.7264 140.208 34.7691 139.909 34.8544C139.61 34.9397 139.344 35.0784 139.109 35.2704C138.885 35.4624 138.709 35.7237 138.581 36.0544C138.453 36.3851 138.389 36.7957 138.389 37.2864V41.2704H136.789ZM146.931 41.4624C145.832 41.4624 144.883 41.2224 144.083 40.7424C143.283 40.2517 142.664 39.5744 142.227 38.7104C141.8 37.8357 141.587 36.8224 141.587 35.6704C141.587 34.5291 141.8 33.5211 142.227 32.6464C142.664 31.7717 143.283 31.0944 144.083 30.6144C144.883 30.1237 145.832 29.8784 146.931 29.8784C148.232 29.8784 149.293 30.1931 150.115 30.8224C150.936 31.4517 151.453 32.3371 151.667 33.4784H149.923C149.752 32.8171 149.416 32.2891 148.915 31.8944C148.424 31.4997 147.757 31.3024 146.915 31.3024C146.168 31.3024 145.512 31.4784 144.947 31.8304C144.392 32.1824 143.965 32.6837 143.667 33.3344C143.368 33.9851 143.219 34.7637 143.219 35.6704C143.219 36.5771 143.368 37.3611 143.667 38.0224C143.965 38.6731 144.392 39.1744 144.947 39.5264C145.512 39.8677 146.168 40.0384 146.915 40.0384C147.757 40.0384 148.424 39.8517 148.915 39.4784C149.416 39.0944 149.747 38.5771 149.907 37.9264H151.667C151.453 39.0357 150.936 39.9051 150.115 40.5344C149.293 41.1531 148.232 41.4624 146.931 41.4624ZM156.221 41.4624C155.464 41.4624 154.781 41.2917 154.173 40.9504C153.576 40.5984 153.101 40.1077 152.749 39.4784C152.408 38.8384 152.237 38.0971 152.237 37.2544C152.237 36.4117 152.413 35.6757 152.765 35.0464C153.117 34.4064 153.597 33.9157 154.205 33.5744C154.813 33.2224 155.49 33.0464 156.237 33.0464C157.005 33.0464 157.688 33.2224 158.285 33.5744C158.893 33.9157 159.368 34.4011 159.709 35.0304C160.061 35.6597 160.237 36.4011 160.237 37.2544C160.237 38.0971 160.061 38.8384 159.709 39.4784C159.357 40.1077 158.877 40.5984 158.269 40.9504C157.672 41.2917 156.989 41.4624 156.221 41.4624ZM156.221 40.0864C156.658 40.0864 157.053 39.9851 157.405 39.7824C157.768 39.5691 158.056 39.2491 158.269 38.8224C158.493 38.3957 158.605 37.8731 158.605 37.2544C158.605 36.6251 158.498 36.1024 158.285 35.6864C158.072 35.2597 157.784 34.9451 157.421 34.7424C157.069 34.5291 156.68 34.4224 156.253 34.4224C155.837 34.4224 155.442 34.5291 155.069 34.7424C154.706 34.9451 154.413 35.2597 154.189 35.6864C153.976 36.1024 153.869 36.6251 153.869 37.2544C153.869 37.8731 153.976 38.3957 154.189 38.8224C154.413 39.2491 154.701 39.5691 155.053 39.7824C155.416 39.9851 155.805 40.0864 156.221 40.0864Z" fill="#121212"/>
<path d="M99.257 59.2704V51.9984L97.901 52.2984V51.6024L99.593 50.8704H100.277V59.2704H99.257ZM101.558 59.2704V58.5624C102.126 58.1144 102.662 57.6624 103.166 57.2064C103.678 56.7424 104.13 56.2864 104.522 55.8384C104.922 55.3904 105.234 54.9504 105.458 54.5184C105.69 54.0864 105.806 53.6704 105.806 53.2704C105.806 52.9744 105.754 52.6984 105.65 52.4424C105.554 52.1864 105.394 51.9824 105.17 51.8304C104.946 51.6704 104.642 51.5904 104.258 51.5904C103.89 51.5904 103.582 51.6744 103.334 51.8424C103.086 52.0024 102.898 52.2184 102.77 52.4904C102.65 52.7624 102.59 53.0544 102.59 53.3664H101.618C101.618 52.8144 101.734 52.3424 101.966 51.9504C102.198 51.5504 102.514 51.2464 102.914 51.0384C103.314 50.8304 103.766 50.7264 104.27 50.7264C105.014 50.7264 105.622 50.9384 106.094 51.3624C106.574 51.7784 106.814 52.4024 106.814 53.2344C106.814 53.7304 106.69 54.2224 106.442 54.7104C106.194 55.1904 105.878 55.6584 105.494 56.1144C105.11 56.5624 104.698 56.9824 104.258 57.3744C103.826 57.7664 103.422 58.1184 103.046 58.4304H107.102V59.2704H101.558ZM108.197 59.2704V50.8704H109.205V54.6744L112.709 50.8704H113.981L110.861 54.2184L114.029 59.2704H112.805L110.141 54.9984L109.205 55.9944V59.2704H108.197ZM117.637 59.2704V50.8704H122.749V51.6984H118.645V54.6504H122.137V55.4664H118.645V59.2704H117.637ZM126.082 59.4144C125.522 59.4144 125.018 59.2864 124.57 59.0304C124.122 58.7744 123.766 58.4144 123.502 57.9504C123.246 57.4784 123.118 56.9264 123.118 56.2944C123.118 55.6624 123.25 55.1144 123.514 54.6504C123.778 54.1784 124.134 53.8144 124.582 53.5584C125.038 53.3024 125.546 53.1744 126.106 53.1744C126.666 53.1744 127.17 53.3024 127.618 53.5584C128.066 53.8144 128.418 54.1784 128.674 54.6504C128.938 55.1144 129.07 55.6624 129.07 56.2944C129.07 56.9264 128.938 57.4784 128.674 57.9504C128.41 58.4144 128.05 58.7744 127.594 59.0304C127.146 59.2864 126.642 59.4144 126.082 59.4144ZM126.082 58.5504C126.426 58.5504 126.746 58.4664 127.042 58.2984C127.338 58.1304 127.578 57.8784 127.762 57.5424C127.946 57.2064 128.038 56.7904 128.038 56.2944C128.038 55.7984 127.946 55.3824 127.762 55.0464C127.586 54.7104 127.35 54.4584 127.054 54.2904C126.758 54.1224 126.442 54.0384 126.106 54.0384C125.762 54.0384 125.442 54.1224 125.146 54.2904C124.85 54.4584 124.61 54.7104 124.426 55.0464C124.242 55.3824 124.15 55.7984 124.15 56.2944C124.15 56.7904 124.242 57.2064 124.426 57.5424C124.61 57.8784 124.846 58.1304 125.134 58.2984C125.43 58.4664 125.746 58.5504 126.082 58.5504ZM130.111 59.2704V50.6304H131.119V59.2704H130.111ZM132.412 59.2704V50.6304H133.42V59.2704H132.412ZM137.424 59.4144C136.864 59.4144 136.36 59.2864 135.912 59.0304C135.464 58.7744 135.108 58.4144 134.844 57.9504C134.588 57.4784 134.46 56.9264 134.46 56.2944C134.46 55.6624 134.592 55.1144 134.856 54.6504C135.12 54.1784 135.476 53.8144 135.924 53.5584C136.38 53.3024 136.888 53.1744 137.448 53.1744C138.008 53.1744 138.512 53.3024 138.96 53.5584C139.408 53.8144 139.76 54.1784 140.016 54.6504C140.28 55.1144 140.412 55.6624 140.412 56.2944C140.412 56.9264 140.28 57.4784 140.016 57.9504C139.752 58.4144 139.392 58.7744 138.936 59.0304C138.488 59.2864 137.984 59.4144 137.424 59.4144ZM137.424 58.5504C137.768 58.5504 138.088 58.4664 138.384 58.2984C138.68 58.1304 138.92 57.8784 139.104 57.5424C139.288 57.2064 139.38 56.7904 139.38 56.2944C139.38 55.7984 139.288 55.3824 139.104 55.0464C138.928 54.7104 138.692 54.4584 138.396 54.2904C138.1 54.1224 137.784 54.0384 137.448 54.0384C137.104 54.0384 136.784 54.1224 136.488 54.2904C136.192 54.4584 135.952 54.7104 135.768 55.0464C135.584 55.3824 135.492 55.7984 135.492 56.2944C135.492 56.7904 135.584 57.2064 135.768 57.5424C135.952 57.8784 136.188 58.1304 136.476 58.2984C136.772 58.4664 137.088 58.5504 137.424 58.5504ZM142.431 59.2704L140.691 53.3184H141.699L142.959 57.9864L144.351 53.3184H145.491L146.895 57.9864L148.143 53.3184H149.163L147.423 59.2704H146.391L144.927 54.3624L143.463 59.2704H142.431ZM152.371 59.4144C151.803 59.4144 151.299 59.2864 150.859 59.0304C150.419 58.7664 150.071 58.4024 149.815 57.9384C149.567 57.4744 149.443 56.9264 149.443 56.2944C149.443 55.6704 149.567 55.1264 149.815 54.6624C150.063 54.1904 150.407 53.8264 150.847 53.5704C151.295 53.3064 151.811 53.1744 152.395 53.1744C152.971 53.1744 153.467 53.3064 153.883 53.5704C154.307 53.8264 154.631 54.1664 154.855 54.5904C155.079 55.0144 155.191 55.4704 155.191 55.9584C155.191 56.0464 155.187 56.1344 155.179 56.2224C155.179 56.3104 155.179 56.4104 155.179 56.5224H150.439C150.463 56.9784 150.567 57.3584 150.751 57.6624C150.943 57.9584 151.179 58.1824 151.459 58.3344C151.747 58.4864 152.051 58.5624 152.371 58.5624C152.787 58.5624 153.135 58.4664 153.415 58.2744C153.695 58.0824 153.899 57.8224 154.027 57.4944H155.023C154.863 58.0464 154.555 58.5064 154.099 58.8744C153.651 59.2344 153.075 59.4144 152.371 59.4144ZM152.371 54.0264C151.891 54.0264 151.463 54.1744 151.087 54.4704C150.719 54.7584 150.507 55.1824 150.451 55.7424H154.195C154.171 55.2064 153.987 54.7864 153.643 54.4824C153.299 54.1784 152.875 54.0264 152.371 54.0264ZM156.167 59.2704V53.3184H157.079L157.163 54.4584C157.347 54.0664 157.627 53.7544 158.003 53.5224C158.379 53.2904 158.843 53.1744 159.395 53.1744V54.2304H159.119C158.767 54.2304 158.443 54.2944 158.147 54.4224C157.851 54.5424 157.615 54.7504 157.439 55.0464C157.263 55.3424 157.175 55.7504 157.175 56.2704V59.2704H156.167ZM162.446 59.4144C161.734 59.4144 161.142 59.2344 160.67 58.8744C160.198 58.5144 159.922 58.0264 159.842 57.4104H160.874C160.938 57.7224 161.102 57.9944 161.366 58.2264C161.638 58.4504 162.002 58.5624 162.458 58.5624C162.882 58.5624 163.194 58.4744 163.394 58.2984C163.594 58.1144 163.694 57.8984 163.694 57.6504C163.694 57.2904 163.562 57.0504 163.298 56.9304C163.042 56.8104 162.678 56.7024 162.206 56.6064C161.886 56.5424 161.566 56.4504 161.246 56.3304C160.926 56.2104 160.658 56.0424 160.442 55.8264C160.226 55.6024 160.118 55.3104 160.118 54.9504C160.118 54.4304 160.31 54.0064 160.694 53.6784C161.086 53.3424 161.614 53.1744 162.278 53.1744C162.91 53.1744 163.426 53.3344 163.826 53.6544C164.234 53.9664 164.47 54.4144 164.534 54.9984H163.538C163.498 54.6944 163.366 54.4584 163.142 54.2904C162.926 54.1144 162.634 54.0264 162.266 54.0264C161.906 54.0264 161.626 54.1024 161.426 54.2544C161.234 54.4064 161.138 54.6064 161.138 54.8544C161.138 55.0944 161.262 55.2824 161.51 55.4184C161.766 55.5544 162.11 55.6704 162.542 55.7664C162.91 55.8464 163.258 55.9464 163.586 56.0664C163.922 56.1784 164.194 56.3504 164.402 56.5824C164.618 56.8064 164.726 57.1344 164.726 57.5664C164.734 58.1024 164.53 58.5464 164.114 58.8984C163.706 59.2424 163.15 59.4144 162.446 59.4144Z" fill="#9E9E9E"/>
</g>
<g filter="url(#filter1_d_2107_24)">
<rect x="199.541" y="13" width="151.541" height="66.5408" rx="33.2704" fill="white" shape-rendering="crispEdges"/>
<circle cx="232.811" cy="46.2704" r="21.2704" fill="#FFCC6A"/>
<path d="M241.514 54.6788L235.319 44.9491L241.384 38.2774C241.597 38.0375 241.707 37.7234 241.689 37.4032C241.672 37.0829 241.53 36.7824 241.292 36.5667C241.055 36.351 240.742 36.2376 240.422 36.251C240.101 36.2643 239.799 36.4035 239.58 36.6382L233.967 42.8173L230.139 36.8038C230.029 36.6308 229.877 36.4884 229.698 36.3897C229.518 36.291 229.316 36.2392 229.111 36.2391H224.236C224.018 36.2392 223.804 36.2979 223.616 36.4092C223.428 36.5204 223.274 36.6801 223.169 36.8715C223.063 37.0629 223.012 37.2789 223.019 37.4972C223.026 37.7154 223.091 37.9277 223.209 38.1119L229.404 47.8416L223.335 54.5132C223.225 54.6313 223.139 54.7699 223.083 54.9212C223.027 55.0725 223.002 55.2334 223.009 55.3945C223.016 55.5557 223.054 55.7139 223.123 55.8599C223.191 56.006 223.288 56.1371 223.407 56.2456C223.526 56.354 223.666 56.4377 223.818 56.4918C223.97 56.5459 224.131 56.5693 224.292 56.5606C224.453 56.552 224.611 56.5114 224.756 56.4414C224.901 56.3713 225.031 56.2731 225.138 56.1524L230.756 49.9734L234.584 55.9869C234.694 56.1599 234.845 56.3023 235.025 56.401C235.205 56.4997 235.406 56.5515 235.611 56.5516H240.486C240.705 56.5515 240.919 56.4927 241.107 56.3815C241.295 56.2702 241.449 56.1106 241.554 55.9192C241.659 55.7278 241.711 55.5117 241.704 55.2935C241.697 55.0753 241.631 54.863 241.514 54.6788ZM236.281 54.1141L226.457 38.6766H228.442L238.266 54.1141H236.281Z" fill="#7551DC"/>
<path d="M269.042 42.5344C267.901 42.5344 266.898 42.3104 266.034 41.8624C265.17 41.4144 264.498 40.7744 264.018 39.9424C263.538 39.1211 263.298 38.1504 263.298 37.0304C263.298 35.8891 263.49 34.8277 263.874 33.8464C264.269 32.8651 264.818 32.0117 265.522 31.2864C266.237 30.5504 267.079 29.9797 268.05 29.5744C269.031 29.1584 270.114 28.9504 271.298 28.9504C272.493 28.9504 273.527 29.1797 274.402 29.6384C275.287 30.0971 275.97 30.7371 276.45 31.5584C276.941 32.3691 277.186 33.3131 277.186 34.3904C277.186 35.0197 277.111 35.6277 276.962 36.2144C276.813 36.8011 276.583 37.3344 276.274 37.8144C275.975 38.2837 275.613 38.6624 275.186 38.9504C274.759 39.2277 274.263 39.3664 273.698 39.3664C273.026 39.3664 272.535 39.1637 272.226 38.7584C271.927 38.3531 271.821 37.8251 271.906 37.1744L271.954 36.6464L272.242 37.2384C271.975 37.8997 271.554 38.4224 270.978 38.8064C270.413 39.1797 269.789 39.3664 269.106 39.3664C268.317 39.3664 267.693 39.1264 267.234 38.6464C266.786 38.1557 266.562 37.4891 266.562 36.6464C266.562 36.0597 266.653 35.4997 266.834 34.9664C267.026 34.4331 267.287 33.9584 267.618 33.5424C267.949 33.1157 268.343 32.7797 268.802 32.5344C269.271 32.2891 269.789 32.1664 270.354 32.1664C270.994 32.1664 271.501 32.3371 271.874 32.6784C272.247 33.0091 272.471 33.4944 272.546 34.1344L272.21 34.3424L272.578 32.3264H273.906L273.122 36.8064C273.047 37.2437 273.069 37.6011 273.186 37.8784C273.303 38.1451 273.549 38.2784 273.922 38.2784C274.253 38.2784 274.541 38.1611 274.786 37.9264C275.031 37.6917 275.239 37.3877 275.41 37.0144C275.581 36.6304 275.709 36.2144 275.794 35.7664C275.879 35.3184 275.922 34.8811 275.922 34.4544C275.922 33.5371 275.725 32.7531 275.33 32.1024C274.946 31.4517 274.397 30.9504 273.682 30.5984C272.967 30.2357 272.114 30.0544 271.122 30.0544C270.162 30.0544 269.282 30.2304 268.482 30.5824C267.682 30.9344 266.989 31.4251 266.402 32.0544C265.815 32.6731 265.362 33.3984 265.042 34.2304C264.722 35.0624 264.562 35.9531 264.562 36.9024C264.562 37.8624 264.749 38.6784 265.122 39.3504C265.506 40.0224 266.05 40.5291 266.754 40.8704C267.469 41.2224 268.311 41.3984 269.282 41.3984C269.751 41.3984 270.215 41.3504 270.674 41.2544C271.143 41.1691 271.575 41.0357 271.97 40.8544L272.242 41.9264C271.751 42.1291 271.234 42.2784 270.69 42.3744C270.157 42.4811 269.607 42.5344 269.042 42.5344ZM269.602 38.1664C270.018 38.1664 270.402 38.0544 270.754 37.8304C271.106 37.5957 271.399 37.2757 271.634 36.8704C271.869 36.4544 272.007 35.9797 272.05 35.4464C272.093 35.0624 272.055 34.7157 271.938 34.4064C271.831 34.0864 271.65 33.8357 271.394 33.6544C271.149 33.4624 270.829 33.3664 270.434 33.3664C270.061 33.3664 269.719 33.4517 269.41 33.6224C269.111 33.7931 268.855 34.0224 268.642 34.3104C268.439 34.5984 268.279 34.9237 268.162 35.2864C268.055 35.6491 268.002 36.0171 268.002 36.3904C268.002 36.9237 268.135 37.3557 268.402 37.6864C268.669 38.0064 269.069 38.1664 269.602 38.1664ZM280.028 39.2704V35.1104L276.332 28.0704H278.14L281.052 33.9904H280.62L283.5 28.0704H285.292L281.628 35.1104V39.2704H280.028ZM287.993 39.4624C287.235 39.4624 286.553 39.2917 285.945 38.9504C285.347 38.5984 284.873 38.1077 284.521 37.4784C284.179 36.8384 284.009 36.0971 284.009 35.2544C284.009 34.4117 284.185 33.6757 284.537 33.0464C284.889 32.4064 285.369 31.9157 285.977 31.5744C286.585 31.2224 287.262 31.0464 288.009 31.0464C288.777 31.0464 289.459 31.2224 290.057 31.5744C290.665 31.9157 291.139 32.4011 291.481 33.0304C291.833 33.6597 292.009 34.4011 292.009 35.2544C292.009 36.0971 291.833 36.8384 291.481 37.4784C291.129 38.1077 290.649 38.5984 290.041 38.9504C289.443 39.2917 288.761 39.4624 287.993 39.4624ZM287.993 38.0864C288.43 38.0864 288.825 37.9851 289.177 37.7824C289.539 37.5691 289.827 37.2491 290.041 36.8224C290.265 36.3957 290.377 35.8731 290.377 35.2544C290.377 34.6251 290.27 34.1024 290.057 33.6864C289.843 33.2597 289.555 32.9451 289.193 32.7424C288.841 32.5291 288.451 32.4224 288.025 32.4224C287.609 32.4224 287.214 32.5291 286.841 32.7424C286.478 32.9451 286.185 33.2597 285.961 33.6864C285.747 34.1024 285.641 34.6251 285.641 35.2544C285.641 35.8731 285.747 36.3957 285.961 36.8224C286.185 37.2491 286.473 37.5691 286.825 37.7824C287.187 37.9851 287.577 38.0864 287.993 38.0864ZM295.859 39.4624C295.23 39.4624 294.686 39.3344 294.227 39.0784C293.768 38.8224 293.411 38.4384 293.155 37.9264C292.91 37.4037 292.787 36.7531 292.787 35.9744V31.2384H294.387V35.8144C294.387 36.5717 294.547 37.1424 294.867 37.5264C295.198 37.9104 295.672 38.1024 296.291 38.1024C296.718 38.1024 297.096 38.0011 297.427 37.7984C297.768 37.5957 298.035 37.3024 298.227 36.9184C298.419 36.5344 298.515 36.0651 298.515 35.5104V31.2384H300.115V39.2704H298.691L298.579 37.8944C298.334 38.3744 297.971 38.7584 297.491 39.0464C297.022 39.3237 296.478 39.4624 295.859 39.4624ZM301.33 39.2704V31.2384H302.77L302.914 32.7584C303.095 32.3957 303.325 32.0917 303.602 31.8464C303.89 31.5904 304.226 31.3931 304.61 31.2544C305.005 31.1157 305.447 31.0464 305.938 31.0464V32.7264H305.41C305.069 32.7264 304.749 32.7691 304.45 32.8544C304.151 32.9397 303.885 33.0784 303.65 33.2704C303.426 33.4624 303.25 33.7237 303.122 34.0544C302.994 34.3851 302.93 34.7957 302.93 35.2864V39.2704H301.33ZM311.472 39.4624C310.373 39.4624 309.424 39.2224 308.624 38.7424C307.824 38.2517 307.205 37.5744 306.768 36.7104C306.341 35.8357 306.128 34.8224 306.128 33.6704C306.128 32.5291 306.341 31.5211 306.768 30.6464C307.205 29.7717 307.824 29.0944 308.624 28.6144C309.424 28.1237 310.373 27.8784 311.472 27.8784C312.773 27.8784 313.834 28.1931 314.656 28.8224C315.477 29.4517 315.994 30.3371 316.208 31.4784H314.464C314.293 30.8171 313.957 30.2891 313.456 29.8944C312.965 29.4997 312.298 29.3024 311.456 29.3024C310.709 29.3024 310.053 29.4784 309.488 29.8304C308.933 30.1824 308.506 30.6837 308.208 31.3344C307.909 31.9851 307.76 32.7637 307.76 33.6704C307.76 34.5771 307.909 35.3611 308.208 36.0224C308.506 36.6731 308.933 37.1744 309.488 37.5264C310.053 37.8677 310.709 38.0384 311.456 38.0384C312.298 38.0384 312.965 37.8517 313.456 37.4784C313.957 37.0944 314.288 36.5771 314.448 35.9264H316.208C315.994 37.0357 315.477 37.9051 314.656 38.5344C313.834 39.1531 312.773 39.4624 311.472 39.4624ZM320.762 39.4624C320.005 39.4624 319.322 39.2917 318.714 38.9504C318.117 38.5984 317.642 38.1077 317.29 37.4784C316.949 36.8384 316.778 36.0971 316.778 35.2544C316.778 34.4117 316.954 33.6757 317.306 33.0464C317.658 32.4064 318.138 31.9157 318.746 31.5744C319.354 31.2224 320.031 31.0464 320.778 31.0464C321.546 31.0464 322.229 31.2224 322.826 31.5744C323.434 31.9157 323.909 32.4011 324.25 33.0304C324.602 33.6597 324.778 34.4011 324.778 35.2544C324.778 36.0971 324.602 36.8384 324.25 37.4784C323.898 38.1077 323.418 38.5984 322.81 38.9504C322.213 39.2917 321.53 39.4624 320.762 39.4624ZM320.762 38.0864C321.199 38.0864 321.594 37.9851 321.946 37.7824C322.309 37.5691 322.597 37.2491 322.81 36.8224C323.034 36.3957 323.146 35.8731 323.146 35.2544C323.146 34.6251 323.039 34.1024 322.826 33.6864C322.613 33.2597 322.325 32.9451 321.962 32.7424C321.61 32.5291 321.221 32.4224 320.794 32.4224C320.378 32.4224 319.983 32.5291 319.61 32.7424C319.247 32.9451 318.954 33.2597 318.73 33.6864C318.517 34.1024 318.41 34.6251 318.41 35.2544C318.41 35.8731 318.517 36.3957 318.73 36.8224C318.954 37.2491 319.242 37.5691 319.594 37.7824C319.957 37.9851 320.346 38.0864 320.762 38.0864Z" fill="#121212"/>
<path d="M265.742 61.4144C265.19 61.4144 264.694 61.3144 264.254 61.1144C263.814 60.9064 263.466 60.6224 263.21 60.2624C262.962 59.8944 262.838 59.4704 262.838 58.9904C262.838 58.4784 262.986 58.0184 263.282 57.6104C263.586 57.2024 263.986 56.9304 264.482 56.7944C264.026 56.6424 263.674 56.3984 263.426 56.0624C263.178 55.7264 263.054 55.3584 263.054 54.9584C263.054 54.5504 263.162 54.1784 263.378 53.8424C263.594 53.4984 263.902 53.2264 264.302 53.0264C264.702 52.8264 265.182 52.7264 265.742 52.7264C266.302 52.7264 266.782 52.8264 267.182 53.0264C267.582 53.2264 267.89 53.4984 268.106 53.8424C268.322 54.1784 268.43 54.5504 268.43 54.9584C268.43 55.3504 268.306 55.7184 268.058 56.0624C267.81 56.3984 267.458 56.6424 267.002 56.7944C267.498 56.9304 267.894 57.2024 268.19 57.6104C268.494 58.0184 268.646 58.4784 268.646 58.9904C268.646 59.4704 268.518 59.8944 268.262 60.2624C268.014 60.6224 267.67 60.9064 267.23 61.1144C266.79 61.3144 266.294 61.4144 265.742 61.4144ZM265.742 56.4344C266.254 56.4344 266.658 56.3064 266.954 56.0504C267.258 55.7864 267.41 55.4424 267.41 55.0184C267.41 54.5464 267.262 54.1904 266.966 53.9504C266.67 53.7104 266.262 53.5904 265.742 53.5904C265.222 53.5904 264.814 53.7104 264.518 53.9504C264.23 54.1904 264.086 54.5464 264.086 55.0184C264.086 55.4424 264.234 55.7864 264.53 56.0504C264.826 56.3064 265.23 56.4344 265.742 56.4344ZM265.742 60.5264C266.374 60.5264 266.846 60.3824 267.158 60.0944C267.478 59.7984 267.638 59.4104 267.638 58.9304C267.638 58.3864 267.466 57.9744 267.122 57.6944C266.778 57.4144 266.318 57.2744 265.742 57.2744C265.166 57.2744 264.706 57.4144 264.362 57.6944C264.018 57.9744 263.846 58.3864 263.846 58.9304C263.846 59.4104 264.002 59.7984 264.314 60.0944C264.634 60.3824 265.11 60.5264 265.742 60.5264ZM269.934 61.2704V52.8704H270.942V56.6744L274.446 52.8704H275.718L272.598 56.2184L275.766 61.2704H274.542L271.878 56.9984L270.942 57.9944V61.2704H269.934ZM279.374 61.2704V52.8704H284.486V53.6984H280.382V56.6504H283.874V57.4664H280.382V61.2704H279.374ZM287.819 61.4144C287.259 61.4144 286.755 61.2864 286.307 61.0304C285.859 60.7744 285.503 60.4144 285.239 59.9504C284.983 59.4784 284.855 58.9264 284.855 58.2944C284.855 57.6624 284.987 57.1144 285.251 56.6504C285.515 56.1784 285.871 55.8144 286.319 55.5584C286.775 55.3024 287.283 55.1744 287.843 55.1744C288.403 55.1744 288.907 55.3024 289.355 55.5584C289.803 55.8144 290.155 56.1784 290.411 56.6504C290.675 57.1144 290.807 57.6624 290.807 58.2944C290.807 58.9264 290.675 59.4784 290.411 59.9504C290.147 60.4144 289.787 60.7744 289.331 61.0304C288.883 61.2864 288.379 61.4144 287.819 61.4144ZM287.819 60.5504C288.163 60.5504 288.483 60.4664 288.779 60.2984C289.075 60.1304 289.315 59.8784 289.499 59.5424C289.683 59.2064 289.775 58.7904 289.775 58.2944C289.775 57.7984 289.683 57.3824 289.499 57.0464C289.323 56.7104 289.087 56.4584 288.791 56.2904C288.495 56.1224 288.179 56.0384 287.843 56.0384C287.499 56.0384 287.179 56.1224 286.883 56.2904C286.587 56.4584 286.347 56.7104 286.163 57.0464C285.979 57.3824 285.887 57.7984 285.887 58.2944C285.887 58.7904 285.979 59.2064 286.163 59.5424C286.347 59.8784 286.583 60.1304 286.871 60.2984C287.167 60.4664 287.483 60.5504 287.819 60.5504ZM291.848 61.2704V52.6304H292.856V61.2704H291.848ZM294.148 61.2704V52.6304H295.156V61.2704H294.148ZM299.161 61.4144C298.601 61.4144 298.097 61.2864 297.649 61.0304C297.201 60.7744 296.845 60.4144 296.581 59.9504C296.325 59.4784 296.197 58.9264 296.197 58.2944C296.197 57.6624 296.329 57.1144 296.593 56.6504C296.857 56.1784 297.213 55.8144 297.661 55.5584C298.117 55.3024 298.625 55.1744 299.185 55.1744C299.745 55.1744 300.249 55.3024 300.697 55.5584C301.145 55.8144 301.497 56.1784 301.753 56.6504C302.017 57.1144 302.149 57.6624 302.149 58.2944C302.149 58.9264 302.017 59.4784 301.753 59.9504C301.489 60.4144 301.129 60.7744 300.673 61.0304C300.225 61.2864 299.721 61.4144 299.161 61.4144ZM299.161 60.5504C299.505 60.5504 299.825 60.4664 300.121 60.2984C300.417 60.1304 300.657 59.8784 300.841 59.5424C301.025 59.2064 301.117 58.7904 301.117 58.2944C301.117 57.7984 301.025 57.3824 300.841 57.0464C300.665 56.7104 300.429 56.4584 300.133 56.2904C299.837 56.1224 299.521 56.0384 299.185 56.0384C298.841 56.0384 298.521 56.1224 298.225 56.2904C297.929 56.4584 297.689 56.7104 297.505 57.0464C297.321 57.3824 297.229 57.7984 297.229 58.2944C297.229 58.7904 297.321 59.2064 297.505 59.5424C297.689 59.8784 297.925 60.1304 298.213 60.2984C298.509 60.4664 298.825 60.5504 299.161 60.5504ZM304.168 61.2704L302.428 55.3184H303.436L304.696 59.9864L306.088 55.3184H307.228L308.632 59.9864L309.88 55.3184H310.9L309.16 61.2704H308.128L306.664 56.3624L305.2 61.2704H304.168ZM314.108 61.4144C313.54 61.4144 313.036 61.2864 312.596 61.0304C312.156 60.7664 311.808 60.4024 311.552 59.9384C311.304 59.4744 311.18 58.9264 311.18 58.2944C311.18 57.6704 311.304 57.1264 311.552 56.6624C311.8 56.1904 312.144 55.8264 312.584 55.5704C313.032 55.3064 313.548 55.1744 314.132 55.1744C314.708 55.1744 315.204 55.3064 315.62 55.5704C316.044 55.8264 316.368 56.1664 316.592 56.5904C316.816 57.0144 316.928 57.4704 316.928 57.9584C316.928 58.0464 316.924 58.1344 316.916 58.2224C316.916 58.3104 316.916 58.4104 316.916 58.5224H312.176C312.2 58.9784 312.304 59.3584 312.488 59.6624C312.68 59.9584 312.916 60.1824 313.196 60.3344C313.484 60.4864 313.788 60.5624 314.108 60.5624C314.524 60.5624 314.872 60.4664 315.152 60.2744C315.432 60.0824 315.636 59.8224 315.764 59.4944H316.76C316.6 60.0464 316.292 60.5064 315.836 60.8744C315.388 61.2344 314.812 61.4144 314.108 61.4144ZM314.108 56.0264C313.628 56.0264 313.2 56.1744 312.824 56.4704C312.456 56.7584 312.244 57.1824 312.188 57.7424H315.932C315.908 57.2064 315.724 56.7864 315.38 56.4824C315.036 56.1784 314.612 56.0264 314.108 56.0264ZM317.904 61.2704V55.3184H318.816L318.9 56.4584C319.084 56.0664 319.364 55.7544 319.74 55.5224C320.116 55.2904 320.58 55.1744 321.132 55.1744V56.2304H320.856C320.504 56.2304 320.18 56.2944 319.884 56.4224C319.588 56.5424 319.352 56.7504 319.176 57.0464C319 57.3424 318.912 57.7504 318.912 58.2704V61.2704H317.904ZM324.183 61.4144C323.471 61.4144 322.879 61.2344 322.407 60.8744C321.935 60.5144 321.659 60.0264 321.579 59.4104H322.611C322.675 59.7224 322.839 59.9944 323.103 60.2264C323.375 60.4504 323.739 60.5624 324.195 60.5624C324.619 60.5624 324.931 60.4744 325.131 60.2984C325.331 60.1144 325.431 59.8984 325.431 59.6504C325.431 59.2904 325.299 59.0504 325.035 58.9304C324.779 58.8104 324.415 58.7024 323.943 58.6064C323.623 58.5424 323.303 58.4504 322.983 58.3304C322.663 58.2104 322.395 58.0424 322.179 57.8264C321.963 57.6024 321.855 57.3104 321.855 56.9504C321.855 56.4304 322.047 56.0064 322.431 55.6784C322.823 55.3424 323.351 55.1744 324.015 55.1744C324.647 55.1744 325.163 55.3344 325.563 55.6544C325.971 55.9664 326.207 56.4144 326.271 56.9984H325.275C325.235 56.6944 325.103 56.4584 324.879 56.2904C324.663 56.1144 324.371 56.0264 324.003 56.0264C323.643 56.0264 323.363 56.1024 323.163 56.2544C322.971 56.4064 322.875 56.6064 322.875 56.8544C322.875 57.0944 322.999 57.2824 323.247 57.4184C323.503 57.5544 323.847 57.6704 324.279 57.7664C324.647 57.8464 324.995 57.9464 325.323 58.0664C325.659 58.1784 325.931 58.3504 326.139 58.5824C326.355 58.8064 326.463 59.1344 326.463 59.5664C326.471 60.1024 326.267 60.5464 325.851 60.8984C325.443 61.2424 324.887 61.4144 324.183 61.4144Z" fill="#9E9E9E"/>
</g>
<defs>
<filter id="filter0_d_2107_24" x="0.764928" y="0.284117" width="203.448" height="115.448" filterUnits="userSpaceOnUse" color-interpolation-filters="sRGB">
<feFlood flood-opacity="0" result="BackgroundImageFix"/>
<feColorMatrix in="SourceAlpha" type="matrix" values="0 0 0 0 0 0 0 0 0 0 0 0 0 0 0 0 0 0 127 0" result="hardAlpha"/>
<feOffset dx="-9.78145" dy="11.7377"/>
<feGaussianBlur stdDeviation="12.2268"/>
<feComposite in2="hardAlpha" operator="out"/>
<feColorMatrix type="matrix" values="0 0 0 0 0.384371 0 0 0 0 0.102708 0 0 0 0 0.483333 0 0 0 0.05 0"/>
<feBlend mode="normal" in2="BackgroundImageFix" result="effect1_dropShadow_2107_24"/>
<feBlend mode="normal" in="SourceGraphic" in2="effect1_dropShadow_2107_24" result="shape"/>
</filter>
<filter id="filter1_d_2107_24" x="165.306" y="0.284117" width="200.448" height="115.448" filterUnits="userSpaceOnUse" color-interpolation-filters="sRGB">
<feFlood flood-opacity="0" result="BackgroundImageFix"/>
<feColorMatrix in="SourceAlpha" type="matrix" values="0 0 0 0 0 0 0 0 0 0 0 0 0 0 0 0 0 0 127 0" result="hardAlpha"/>
<feOffset dx="-9.78145" dy="11.7377"/>
<feGaussianBlur stdDeviation="12.2268"/>
<feComposite in2="hardAlpha" operator="out"/>
<feColorMatrix type="matrix" values="0 0 0 0 0.384371 0 0 0 0 0.102708 0 0 0 0 0.483333 0 0 0 0.05 0"/>
<feBlend mode="normal" in2="BackgroundImageFix" result="effect1_dropShadow_2107_24"/>
<feBlend mode="normal" in="SourceGraphic" in2="effect1_dropShadow_2107_24" result="shape"/>
</filter>
</defs>
</svg>
